<svg width="349" height="210" viewBox="0 0 349 210" fill="none" xmlns="http://www.w3.org/2000/svg">
<rect width="349" height="210" fill="#F5F5F5"/>
<g filter="url(#filter0_i_32_18)">
<path d="M122.095 143H102.466L61.377 100.666L20.4346 143H0.732422L51.6357 90.4854L0.732422 37.9707H20.4346L122.095 143ZM122.095 37.9707L76.3184 85.0654L66.5771 75.0312L102.466 37.9707H122.095Z" fill="#5C00A5"/>
<path d="M122.095 143H102.466L61.377 100.666L20.4346 143H0.732422L51.6357 90.4854L0.732422 37.9707H20.4346L122.095 143ZM122.095 37.9707L76.3184 85.0654L66.5771 75.0312L102.466 37.9707H122.095Z" fill="#8A8A8A" fill-opacity="0.2"/>
</g>
<path d="M133.183 157H101.635C98.2396 157 95.152 156.362 92.3721 155.086C89.5921 153.81 87.2109 152.067 85.2285 149.856C83.2689 147.646 81.7536 145.049 80.6826 142.063C79.6117 139.078 79.0762 135.888 79.0762 132.493C79.0762 129.121 79.6117 125.953 80.6826 122.991C81.7536 120.006 83.2689 117.409 85.2285 115.198C87.2109 112.965 89.5921 111.211 92.3721 109.935C95.152 108.636 98.2396 107.986 101.635 107.986H133.183V114.993H101.635C99.2194 114.993 97.0433 115.46 95.1064 116.395C93.1924 117.306 91.5632 118.559 90.2188 120.154C88.8971 121.727 87.8717 123.572 87.1426 125.691C86.4362 127.811 86.083 130.078 86.083 132.493C86.083 134.909 86.4362 137.187 87.1426 139.329C87.8717 141.448 88.8971 143.305 90.2188 144.9C91.5632 146.473 93.1924 147.715 95.1064 148.626C97.0433 149.537 99.2194 149.993 101.635 149.993H126.176V136.014H96.5078V129.007H133.183V157ZM186.674 157H179.667V146.438H152.699V139.295H179.667V125.418H161.449C159.74 125.418 158.134 125.748 156.63 126.409C155.126 127.047 153.816 127.924 152.699 129.041C151.583 130.158 150.694 131.468 150.033 132.972C149.395 134.453 149.076 136.048 149.076 137.757V157H142.001V137.757C142.001 135.068 142.514 132.55 143.539 130.203C144.564 127.856 145.954 125.805 147.709 124.051C149.464 122.296 151.526 120.918 153.896 119.915C156.265 118.89 158.783 118.377 161.449 118.377H186.674V157ZM224.989 157H217.982V137.62C217.982 135.934 217.663 134.35 217.025 132.869C216.387 131.388 215.51 130.101 214.394 129.007C213.3 127.89 212.001 127.013 210.497 126.375C209.016 125.737 207.432 125.418 205.746 125.418H203.764V157H196.757V118.514H205.746C207.387 118.514 208.97 118.719 210.497 119.129C212.024 119.516 213.459 120.075 214.804 120.804C216.171 121.51 217.424 122.376 218.563 123.401C219.726 124.427 220.74 125.566 221.605 126.819C222.494 125.566 223.497 124.427 224.613 123.401C225.753 122.376 226.983 121.51 228.305 120.804C229.626 120.075 231.028 119.516 232.509 119.129C233.99 118.719 235.539 118.514 237.157 118.514H246.112V157H239.105V125.418H237.157C235.471 125.418 233.887 125.76 232.406 126.443C230.948 127.127 229.66 128.061 228.544 129.246C227.45 130.431 226.584 131.821 225.946 133.416C225.308 135.011 224.989 136.709 224.989 138.509V157ZM296.425 157H256.229V118.377H296.425V125.418H263.305V149.925H296.425V157ZM291.947 141.038H266.62V133.963H291.947V141.038ZM346.43 145.652C346.43 147.225 346.133 148.706 345.541 150.096C344.949 151.463 344.14 152.659 343.114 153.685C342.112 154.71 340.915 155.519 339.525 156.111C338.158 156.704 336.688 157 335.116 157H302.406V149.993H335.116C335.731 149.993 336.301 149.891 336.825 149.686C337.372 149.458 337.839 149.15 338.227 148.763C338.637 148.353 338.956 147.885 339.184 147.361C339.411 146.837 339.525 146.268 339.525 145.652C339.525 145.037 339.411 144.467 339.184 143.943C338.956 143.396 338.637 142.929 338.227 142.542C337.839 142.132 337.372 141.813 336.825 141.585C336.301 141.357 335.731 141.243 335.116 141.243H313.686C312.136 141.243 310.678 140.947 309.311 140.354C307.943 139.762 306.747 138.953 305.722 137.928C304.696 136.88 303.887 135.66 303.295 134.271C302.702 132.881 302.406 131.399 302.406 129.827C302.406 128.3 302.702 126.854 303.295 125.486C303.887 124.096 304.696 122.889 305.722 121.863C306.747 120.838 307.943 120.029 309.311 119.437C310.678 118.821 312.136 118.514 313.686 118.514H343.866V125.418H313.686C313.093 125.418 312.523 125.543 311.977 125.794C311.452 126.022 310.997 126.341 310.609 126.751C310.222 127.138 309.914 127.605 309.687 128.152C309.459 128.676 309.345 129.235 309.345 129.827C309.345 130.442 309.459 131.023 309.687 131.57C309.914 132.094 310.222 132.562 310.609 132.972C310.997 133.359 311.452 133.667 311.977 133.895C312.523 134.122 313.093 134.236 313.686 134.236H335.116C336.688 134.236 338.158 134.544 339.525 135.159C340.915 135.752 342.112 136.572 343.114 137.62C344.14 138.646 344.949 139.853 345.541 141.243C346.133 142.633 346.43 144.103 346.43 145.652Z" fill="#8A50FF"/>
<path d="M133.183 157H101.635C98.2396 157 95.152 156.362 92.3721 155.086C89.5921 153.81 87.2109 152.067 85.2285 149.856C83.2689 147.646 81.7536 145.049 80.6826 142.063C79.6117 139.078 79.0762 135.888 79.0762 132.493C79.0762 129.121 79.6117 125.953 80.6826 122.991C81.7536 120.006 83.2689 117.409 85.2285 115.198C87.2109 112.965 89.5921 111.211 92.3721 109.935C95.152 108.636 98.2396 107.986 101.635 107.986H133.183V114.993H101.635C99.2194 114.993 97.0433 115.46 95.1064 116.395C93.1924 117.306 91.5632 118.559 90.2188 120.154C88.8971 121.727 87.8717 123.572 87.1426 125.691C86.4362 127.811 86.083 130.078 86.083 132.493C86.083 134.909 86.4362 137.187 87.1426 139.329C87.8717 141.448 88.8971 143.305 90.2188 144.9C91.5632 146.473 93.1924 147.715 95.1064 148.626C97.0433 149.537 99.2194 149.993 101.635 149.993H126.176V136.014H96.5078V129.007H133.183V157ZM186.674 157H179.667V146.438H152.699V139.295H179.667V125.418H161.449C159.74 125.418 158.134 125.748 156.63 126.409C155.126 127.047 153.816 127.924 152.699 129.041C151.583 130.158 150.694 131.468 150.033 132.972C149.395 134.453 149.076 136.048 149.076 137.757V157H142.001V137.757C142.001 135.068 142.514 132.55 143.539 130.203C144.564 127.856 145.954 125.805 147.709 124.051C149.464 122.296 151.526 120.918 153.896 119.915C156.265 118.89 158.783 118.377 161.449 118.377H186.674V157ZM224.989 157H217.982V137.62C217.982 135.934 217.663 134.35 217.025 132.869C216.387 131.388 215.51 130.101 214.394 129.007C213.3 127.89 212.001 127.013 210.497 126.375C209.016 125.737 207.432 125.418 205.746 125.418H203.764V157H196.757V118.514H205.746C207.387 118.514 208.97 118.719 210.497 119.129C212.024 119.516 213.459 120.075 214.804 120.804C216.171 121.51 217.424 122.376 218.563 123.401C219.726 124.427 220.74 125.566 221.605 126.819C222.494 125.566 223.497 124.427 224.613 123.401C225.753 122.376 226.983 121.51 228.305 120.804C229.626 120.075 231.028 119.516 232.509 119.129C233.99 118.719 235.539 118.514 237.157 118.514H246.112V157H239.105V125.418H237.157C235.471 125.418 233.887 125.76 232.406 126.443C230.948 127.127 229.66 128.061 228.544 129.246C227.45 130.431 226.584 131.821 225.946 133.416C225.308 135.011 224.989 136.709 224.989 138.509V157ZM296.425 157H256.229V118.377H296.425V125.418H263.305V149.925H296.425V157ZM291.947 141.038H266.62V133.963H291.947V141.038ZM346.43 145.652C346.43 147.225 346.133 148.706 345.541 150.096C344.949 151.463 344.14 152.659 343.114 153.685C342.112 154.71 340.915 155.519 339.525 156.111C338.158 156.704 336.688 157 335.116 157H302.406V149.993H335.116C335.731 149.993 336.301 149.891 336.825 149.686C337.372 149.458 337.839 149.15 338.227 148.763C338.637 148.353 338.956 147.885 339.184 147.361C339.411 146.837 339.525 146.268 339.525 145.652C339.525 145.037 339.411 144.467 339.184 143.943C338.956 143.396 338.637 142.929 338.227 142.542C337.839 142.132 337.372 141.813 336.825 141.585C336.301 141.357 335.731 141.243 335.116 141.243H313.686C312.136 141.243 310.678 140.947 309.311 140.354C307.943 139.762 306.747 138.953 305.722 137.928C304.696 136.88 303.887 135.66 303.295 134.271C302.702 132.881 302.406 131.399 302.406 129.827C302.406 128.3 302.702 126.854 303.295 125.486C303.887 124.096 304.696 122.889 305.722 121.863C306.747 120.838 307.943 120.029 309.311 119.437C310.678 118.821 312.136 118.514 313.686 118.514H343.866V125.418H313.686C313.093 125.418 312.523 125.543 311.977 125.794C311.452 126.022 310.997 126.341 310.609 126.751C310.222 127.138 309.914 127.605 309.687 128.152C309.459 128.676 309.345 129.235 309.345 129.827C309.345 130.442 309.459 131.023 309.687 131.57C309.914 132.094 310.222 132.562 310.609 132.972C310.997 133.359 311.452 133.667 311.977 133.895C312.523 134.122 313.093 134.236 313.686 134.236H335.116C336.688 134.236 338.158 134.544 339.525 135.159C340.915 135.752 342.112 136.572 343.114 137.62C344.14 138.646 344.949 139.853 345.541 141.243C346.133 142.633 346.43 144.103 346.43 145.652Z" fill="#818181" fill-opacity="0.1"/>
<g filter="url(#filter1_i_32_18)">
<path d="M265.867 198H264.672C263.5 198 262.406 197.781 261.391 197.344C260.375 196.906 259.484 196.312 258.719 195.562C257.953 194.797 257.352 193.906 256.914 192.891C256.477 191.859 256.258 190.766 256.258 189.609V162H261.062V189.609C261.062 190.109 261.156 190.578 261.344 191.016C261.531 191.438 261.789 191.812 262.117 192.141C262.445 192.469 262.828 192.727 263.266 192.914C263.703 193.102 264.172 193.195 264.672 193.195H265.867V198ZM276.039 165.609C276.039 166.109 275.945 166.578 275.758 167.016C275.57 167.438 275.312 167.812 274.984 168.141C274.656 168.469 274.273 168.727 273.836 168.914C273.398 169.102 272.938 169.195 272.453 169.195C271.953 169.195 271.484 169.102 271.047 168.914C270.609 168.727 270.227 168.469 269.898 168.141C269.57 167.812 269.312 167.438 269.125 167.016C268.938 166.578 268.844 166.109 268.844 165.609C268.844 165.125 268.938 164.664 269.125 164.227C269.312 163.789 269.57 163.406 269.898 163.078C270.227 162.75 270.609 162.492 271.047 162.305C271.484 162.102 271.953 162 272.453 162C272.938 162 273.398 162.102 273.836 162.305C274.273 162.492 274.656 162.75 274.984 163.078C275.312 163.406 275.57 163.789 275.758 164.227C275.945 164.664 276.039 165.125 276.039 165.609ZM274.844 198H270.039V171.609H274.844V198ZM313.539 171.609L298.961 198H293.477L278.992 171.609H284.594L296.219 193.008L307.938 171.609H313.539ZM347.5 180C347.5 181.172 347.281 182.266 346.844 183.281C346.406 184.297 345.805 185.188 345.039 185.953C344.289 186.703 343.398 187.297 342.367 187.734C341.352 188.172 340.266 188.391 339.109 188.391H320.711C321.055 189.094 321.484 189.742 322 190.336C322.516 190.93 323.094 191.438 323.734 191.859C324.375 192.281 325.07 192.609 325.82 192.844C326.586 193.078 327.383 193.195 328.211 193.195H343.914V198H328.211C326.398 197.984 324.695 197.633 323.102 196.945C321.508 196.242 320.117 195.297 318.93 194.109C317.758 192.906 316.828 191.508 316.141 189.914C315.453 188.32 315.109 186.617 315.109 184.805C315.109 182.992 315.453 181.289 316.141 179.695C316.828 178.102 317.758 176.711 318.93 175.523C320.117 174.32 321.508 173.375 323.102 172.688C324.695 171.984 326.398 171.625 328.211 171.609H339.109C340.266 171.609 341.352 171.828 342.367 172.266C343.398 172.703 344.289 173.305 345.039 174.07C345.805 174.82 346.406 175.703 346.844 176.719C347.281 177.734 347.5 178.828 347.5 180ZM339.109 183.609C339.594 183.609 340.055 183.516 340.492 183.328C340.93 183.141 341.312 182.883 341.641 182.555C341.969 182.227 342.227 181.844 342.414 181.406C342.602 180.969 342.695 180.5 342.695 180C342.695 179.516 342.602 179.055 342.414 178.617C342.227 178.18 341.969 177.797 341.641 177.469C341.312 177.141 340.93 176.883 340.492 176.695C340.055 176.492 339.594 176.391 339.109 176.391H328.211C327.148 176.391 326.148 176.578 325.211 176.953C324.289 177.328 323.461 177.844 322.727 178.5C322.008 179.141 321.406 179.906 320.922 180.797C320.453 181.672 320.148 182.609 320.008 183.609H339.109Z" fill="#11A9AF"/>
<path d="M265.867 198H264.672C263.5 198 262.406 197.781 261.391 197.344C260.375 196.906 259.484 196.312 258.719 195.562C257.953 194.797 257.352 193.906 256.914 192.891C256.477 191.859 256.258 190.766 256.258 189.609V162H261.062V189.609C261.062 190.109 261.156 190.578 261.344 191.016C261.531 191.438 261.789 191.812 262.117 192.141C262.445 192.469 262.828 192.727 263.266 192.914C263.703 193.102 264.172 193.195 264.672 193.195H265.867V198ZM276.039 165.609C276.039 166.109 275.945 166.578 275.758 167.016C275.57 167.438 275.312 167.812 274.984 168.141C274.656 168.469 274.273 168.727 273.836 168.914C273.398 169.102 272.938 169.195 272.453 169.195C271.953 169.195 271.484 169.102 271.047 168.914C270.609 168.727 270.227 168.469 269.898 168.141C269.57 167.812 269.312 167.438 269.125 167.016C268.938 166.578 268.844 166.109 268.844 165.609C268.844 165.125 268.938 164.664 269.125 164.227C269.312 163.789 269.57 163.406 269.898 163.078C270.227 162.75 270.609 162.492 271.047 162.305C271.484 162.102 271.953 162 272.453 162C272.938 162 273.398 162.102 273.836 162.305C274.273 162.492 274.656 162.75 274.984 163.078C275.312 163.406 275.57 163.789 275.758 164.227C275.945 164.664 276.039 165.125 276.039 165.609ZM274.844 198H270.039V171.609H274.844V198ZM313.539 171.609L298.961 198H293.477L278.992 171.609H284.594L296.219 193.008L307.938 171.609H313.539ZM347.5 180C347.5 181.172 347.281 182.266 346.844 183.281C346.406 184.297 345.805 185.188 345.039 185.953C344.289 186.703 343.398 187.297 342.367 187.734C341.352 188.172 340.266 188.391 339.109 188.391H320.711C321.055 189.094 321.484 189.742 322 190.336C322.516 190.93 323.094 191.438 323.734 191.859C324.375 192.281 325.07 192.609 325.82 192.844C326.586 193.078 327.383 193.195 328.211 193.195H343.914V198H328.211C326.398 197.984 324.695 197.633 323.102 196.945C321.508 196.242 320.117 195.297 318.93 194.109C317.758 192.906 316.828 191.508 316.141 189.914C315.453 188.32 315.109 186.617 315.109 184.805C315.109 182.992 315.453 181.289 316.141 179.695C316.828 178.102 317.758 176.711 318.93 175.523C320.117 174.32 321.508 173.375 323.102 172.688C324.695 171.984 326.398 171.625 328.211 171.609H339.109C340.266 171.609 341.352 171.828 342.367 172.266C343.398 172.703 344.289 173.305 345.039 174.07C345.805 174.82 346.406 175.703 346.844 176.719C347.281 177.734 347.5 178.828 347.5 180ZM339.109 183.609C339.594 183.609 340.055 183.516 340.492 183.328C340.93 183.141 341.312 182.883 341.641 182.555C341.969 182.227 342.227 181.844 342.414 181.406C342.602 180.969 342.695 180.5 342.695 180C342.695 179.516 342.602 179.055 342.414 178.617C342.227 178.18 341.969 177.797 341.641 177.469C341.312 177.141 340.93 176.883 340.492 176.695C340.055 176.492 339.594 176.391 339.109 176.391H328.211C327.148 176.391 326.148 176.578 325.211 176.953C324.289 177.328 323.461 177.844 322.727 178.5C322.008 179.141 321.406 179.906 320.922 180.797C320.453 181.672 320.148 182.609 320.008 183.609H339.109Z" fill="white" fill-opacity="0.24"/>
</g>
<defs>
<filter id="filter0_i_32_18" x="0.732422" y="37.9707" width="121.363" height="109.029" filterUnits="userSpaceOnUse" color-interpolation-filters="sRGB">
<feFlood flood-opacity="0" result="BackgroundImageFix"/>
<feBlend mode="normal" in="SourceGraphic" in2="BackgroundImageFix" result="shape"/>
<feColorMatrix in="SourceAlpha" type="matrix" values="0 0 0 0 0 0 0 0 0 0 0 0 0 0 0 0 0 0 127 0" result="hardAlpha"/>
<feOffset dy="4"/>
<feGaussianBlur stdDeviation="2"/>
<feComposite in2="hardAlpha" operator="arithmetic" k2="-1" k3="1"/>
<feColorMatrix type="matrix" values="0 0 0 0 0 0 0 0 0 0 0 0 0 0 0 0 0 0 0.25 0"/>
<feBlend mode="normal" in2="shape" result="effect1_innerShadow_32_18"/>
</filter>
<filter id="filter1_i_32_18" x="256.258" y="162" width="91.2419" height="40" filterUnits="userSpaceOnUse" color-interpolation-filters="sRGB">
<feFlood flood-opacity="0" result="BackgroundImageFix"/>
<feBlend mode="normal" in="SourceGraphic" in2="BackgroundImageFix" result="shape"/>
<feColorMatrix in="SourceAlpha" type="matrix" values="0 0 0 0 0 0 0 0 0 0 0 0 0 0 0 0 0 0 127 0" result="hardAlpha"/>
<feOffset dy="4"/>
<feGaussianBlur stdDeviation="2"/>
<feComposite in2="hardAlpha" operator="arithmetic" k2="-1" k3="1"/>
<feColorMatrix type="matrix" values="0 0 0 0 0 0 0 0 0 0 0 0 0 0 0 0 0 0 0.25 0"/>
<feBlend mode="normal" in2="shape" result="effect1_innerShadow_32_18"/>
</filter>
</defs>
</svg>
